<mxfile host="app.diagrams.net" agent="Mozilla/5.0 (Windows NT 10.0; Win64; x64) AppleWebKit/537.36 (KHTML, like Gecko) Chrome/132.0.0.0 Safari/537.36" version="24.8.4">
  <diagram name="Page-1" id="fd0BKbMkZNCjQAa6GCeJ">
    <mxGraphModel dx="1509" dy="777" grid="1" gridSize="10" guides="1" tooltips="1" connect="1" arrows="1" fold="1" page="1" pageScale="1" pageWidth="827" pageHeight="1169" math="0" shadow="0">
      <root>
        <mxCell id="0" />
        <mxCell id="1" parent="0" />
        <mxCell id="IMV991JVtr9X0o2-LDnY-48" value="&lt;div&gt;API&lt;/div&gt;&lt;div&gt;&lt;br&gt;&lt;/div&gt;&lt;div&gt;&lt;br&gt;&lt;/div&gt;&lt;div&gt;&lt;br&gt;&lt;/div&gt;&lt;div&gt;&lt;br&gt;&lt;/div&gt;&lt;div&gt;&lt;br&gt;&lt;/div&gt;&lt;div&gt;&lt;br&gt;&lt;/div&gt;&lt;div&gt;&lt;br&gt;&lt;/div&gt;&lt;div&gt;&lt;br&gt;&lt;/div&gt;&lt;div&gt;&lt;br&gt;&lt;/div&gt;" style="rounded=1;whiteSpace=wrap;html=1;" vertex="1" parent="1">
          <mxGeometry x="850" y="350" width="160" height="170" as="geometry" />
        </mxCell>
        <mxCell id="IMV991JVtr9X0o2-LDnY-51" value="openweather&lt;div&gt;&lt;br&gt;&lt;/div&gt;&lt;div&gt;&lt;br&gt;&lt;/div&gt;&lt;div&gt;&lt;br&gt;&lt;/div&gt;&lt;div&gt;&lt;br&gt;&lt;/div&gt;&lt;div&gt;&lt;br&gt;&lt;/div&gt;&lt;div&gt;&lt;br&gt;&lt;/div&gt;" style="rounded=0;whiteSpace=wrap;html=1;" vertex="1" parent="1">
          <mxGeometry x="870" y="390" width="120" height="120" as="geometry" />
        </mxCell>
        <mxCell id="IMV991JVtr9X0o2-LDnY-1" value="&lt;div&gt;DataBase&lt;/div&gt;&lt;div&gt;&lt;br&gt;&lt;/div&gt;&lt;div&gt;&lt;br&gt;&lt;/div&gt;&lt;div&gt;&lt;br&gt;&lt;/div&gt;&lt;div&gt;&lt;br&gt;&lt;/div&gt;&lt;div&gt;&lt;br&gt;&lt;/div&gt;&lt;div&gt;&lt;br&gt;&lt;/div&gt;&lt;div&gt;&lt;br&gt;&lt;/div&gt;" style="rounded=1;whiteSpace=wrap;html=1;" vertex="1" parent="1">
          <mxGeometry x="850" y="170" width="160" height="150" as="geometry" />
        </mxCell>
        <mxCell id="IMV991JVtr9X0o2-LDnY-10" style="edgeStyle=orthogonalEdgeStyle;rounded=0;orthogonalLoop=1;jettySize=auto;html=1;entryX=0;entryY=0.5;entryDx=0;entryDy=0;" edge="1" parent="1" source="IMV991JVtr9X0o2-LDnY-4" target="IMV991JVtr9X0o2-LDnY-6">
          <mxGeometry relative="1" as="geometry" />
        </mxCell>
        <mxCell id="IMV991JVtr9X0o2-LDnY-11" value="use" style="edgeLabel;html=1;align=center;verticalAlign=middle;resizable=0;points=[];" vertex="1" connectable="0" parent="IMV991JVtr9X0o2-LDnY-10">
          <mxGeometry x="-0.0857" y="-2" relative="1" as="geometry">
            <mxPoint as="offset" />
          </mxGeometry>
        </mxCell>
        <mxCell id="IMV991JVtr9X0o2-LDnY-4" value="User" style="shape=umlActor;verticalLabelPosition=bottom;verticalAlign=top;html=1;outlineConnect=0;" vertex="1" parent="1">
          <mxGeometry x="20" y="310" width="30" height="60" as="geometry" />
        </mxCell>
        <mxCell id="IMV991JVtr9X0o2-LDnY-5" value="middleware&lt;br&gt;&lt;div&gt;&lt;br&gt;&lt;/div&gt;&lt;div&gt;&lt;br&gt;&lt;/div&gt;&lt;div&gt;&lt;br&gt;&lt;/div&gt;&lt;div&gt;&lt;br&gt;&lt;/div&gt;&lt;div&gt;&lt;br&gt;&lt;/div&gt;&lt;div&gt;&lt;br&gt;&lt;/div&gt;&lt;div&gt;&lt;br&gt;&lt;/div&gt;&lt;div&gt;&lt;br&gt;&lt;/div&gt;&lt;div&gt;&lt;br&gt;&lt;/div&gt;&lt;div&gt;&lt;br&gt;&lt;/div&gt;&lt;div&gt;&lt;br&gt;&lt;/div&gt;&lt;div&gt;&lt;br&gt;&lt;/div&gt;&lt;div&gt;&lt;br&gt;&lt;/div&gt;&lt;div&gt;&lt;br&gt;&lt;/div&gt;&lt;div&gt;&lt;br&gt;&lt;/div&gt;&lt;div&gt;&lt;br&gt;&lt;/div&gt;&lt;div&gt;&lt;br&gt;&lt;/div&gt;&lt;div&gt;&lt;br&gt;&lt;/div&gt;&lt;div&gt;&lt;br&gt;&lt;/div&gt;&lt;div&gt;&lt;br&gt;&lt;/div&gt;&lt;div&gt;&lt;br&gt;&lt;/div&gt;" style="rounded=1;whiteSpace=wrap;html=1;" vertex="1" parent="1">
          <mxGeometry x="361" y="160" width="399" height="360" as="geometry" />
        </mxCell>
        <mxCell id="IMV991JVtr9X0o2-LDnY-6" value="Client/Browser&lt;div&gt;&lt;br&gt;&lt;/div&gt;&lt;div&gt;&lt;br&gt;&lt;/div&gt;&lt;div&gt;&lt;br&gt;&lt;/div&gt;&lt;div&gt;&lt;br&gt;&lt;/div&gt;&lt;div&gt;&lt;br&gt;&lt;/div&gt;&lt;div&gt;&lt;br&gt;&lt;/div&gt;&lt;div&gt;&lt;br&gt;&lt;/div&gt;&lt;div&gt;&lt;br&gt;&lt;/div&gt;&lt;div&gt;&lt;br&gt;&lt;/div&gt;&lt;div&gt;&lt;br&gt;&lt;/div&gt;&lt;div&gt;&lt;br&gt;&lt;/div&gt;&lt;div&gt;&lt;br&gt;&lt;/div&gt;&lt;div&gt;&lt;br&gt;&lt;/div&gt;&lt;div&gt;&lt;br&gt;&lt;/div&gt;&lt;div&gt;&lt;br&gt;&lt;/div&gt;&lt;div&gt;&lt;br&gt;&lt;/div&gt;&lt;div&gt;&lt;br&gt;&lt;/div&gt;&lt;div&gt;&lt;br&gt;&lt;/div&gt;&lt;div&gt;&lt;br&gt;&lt;/div&gt;&lt;div&gt;&lt;br&gt;&lt;/div&gt;&lt;div&gt;&lt;br&gt;&lt;/div&gt;&lt;div&gt;&lt;br&gt;&lt;/div&gt;" style="rounded=1;whiteSpace=wrap;html=1;" vertex="1" parent="1">
          <mxGeometry x="120" y="160" width="150" height="360" as="geometry" />
        </mxCell>
        <mxCell id="IMV991JVtr9X0o2-LDnY-7" value="django&lt;div&gt;&lt;br&gt;&lt;/div&gt;&lt;div&gt;&lt;br&gt;&lt;/div&gt;&lt;div&gt;&lt;br&gt;&lt;/div&gt;&lt;div&gt;&lt;br&gt;&lt;/div&gt;&lt;div&gt;&lt;br&gt;&lt;/div&gt;&lt;div&gt;&lt;br&gt;&lt;/div&gt;&lt;div&gt;&lt;br&gt;&lt;/div&gt;&lt;div&gt;&lt;br&gt;&lt;/div&gt;&lt;div&gt;&lt;br&gt;&lt;/div&gt;&lt;div&gt;&lt;br&gt;&lt;/div&gt;&lt;div&gt;&lt;br&gt;&lt;/div&gt;&lt;div&gt;&lt;br&gt;&lt;/div&gt;&lt;div&gt;&lt;br&gt;&lt;/div&gt;&lt;div&gt;&lt;br&gt;&lt;/div&gt;&lt;div&gt;&lt;br&gt;&lt;/div&gt;" style="rounded=0;whiteSpace=wrap;html=1;" vertex="1" parent="1">
          <mxGeometry x="391" y="220" width="329" height="260" as="geometry" />
        </mxCell>
        <mxCell id="IMV991JVtr9X0o2-LDnY-12" value="html" style="rounded=0;whiteSpace=wrap;html=1;" vertex="1" parent="1">
          <mxGeometry x="135" y="210" width="120" height="60" as="geometry" />
        </mxCell>
        <mxCell id="IMV991JVtr9X0o2-LDnY-13" value="css" style="rounded=0;whiteSpace=wrap;html=1;" vertex="1" parent="1">
          <mxGeometry x="135" y="290" width="120" height="60" as="geometry" />
        </mxCell>
        <mxCell id="IMV991JVtr9X0o2-LDnY-14" value="javascript" style="rounded=0;whiteSpace=wrap;html=1;" vertex="1" parent="1">
          <mxGeometry x="135" y="370" width="120" height="60" as="geometry" />
        </mxCell>
        <mxCell id="IMV991JVtr9X0o2-LDnY-20" value="weather visualizations" style="rounded=0;whiteSpace=wrap;html=1;" vertex="1" parent="1">
          <mxGeometry x="135" y="450" width="120" height="60" as="geometry" />
        </mxCell>
        <mxCell id="IMV991JVtr9X0o2-LDnY-68" style="edgeStyle=orthogonalEdgeStyle;rounded=0;orthogonalLoop=1;jettySize=auto;html=1;" edge="1" parent="1" source="IMV991JVtr9X0o2-LDnY-24" target="IMV991JVtr9X0o2-LDnY-34">
          <mxGeometry relative="1" as="geometry" />
        </mxCell>
        <mxCell id="IMV991JVtr9X0o2-LDnY-69" value="call" style="edgeLabel;html=1;align=center;verticalAlign=middle;resizable=0;points=[];" vertex="1" connectable="0" parent="IMV991JVtr9X0o2-LDnY-68">
          <mxGeometry x="-0.1186" y="2" relative="1" as="geometry">
            <mxPoint as="offset" />
          </mxGeometry>
        </mxCell>
        <mxCell id="IMV991JVtr9X0o2-LDnY-80" style="edgeStyle=orthogonalEdgeStyle;rounded=0;orthogonalLoop=1;jettySize=auto;html=1;entryX=1;entryY=0.5;entryDx=0;entryDy=0;" edge="1" parent="1" source="IMV991JVtr9X0o2-LDnY-24" target="IMV991JVtr9X0o2-LDnY-70">
          <mxGeometry relative="1" as="geometry" />
        </mxCell>
        <mxCell id="IMV991JVtr9X0o2-LDnY-89" value="rendering" style="edgeLabel;html=1;align=center;verticalAlign=middle;resizable=0;points=[];" vertex="1" connectable="0" parent="IMV991JVtr9X0o2-LDnY-80">
          <mxGeometry x="-0.0625" y="2" relative="1" as="geometry">
            <mxPoint y="-27" as="offset" />
          </mxGeometry>
        </mxCell>
        <mxCell id="IMV991JVtr9X0o2-LDnY-24" value="views" style="rounded=0;whiteSpace=wrap;html=1;" vertex="1" parent="1">
          <mxGeometry x="522.5" y="390" width="66" height="30" as="geometry" />
        </mxCell>
        <mxCell id="IMV991JVtr9X0o2-LDnY-32" style="edgeStyle=orthogonalEdgeStyle;rounded=0;orthogonalLoop=1;jettySize=auto;html=1;" edge="1" parent="1" source="IMV991JVtr9X0o2-LDnY-25" target="IMV991JVtr9X0o2-LDnY-24">
          <mxGeometry relative="1" as="geometry" />
        </mxCell>
        <mxCell id="IMV991JVtr9X0o2-LDnY-33" value="mapping" style="edgeLabel;html=1;align=center;verticalAlign=middle;resizable=0;points=[];" vertex="1" connectable="0" parent="IMV991JVtr9X0o2-LDnY-32">
          <mxGeometry x="-0.1744" y="3" relative="1" as="geometry">
            <mxPoint x="6" y="38" as="offset" />
          </mxGeometry>
        </mxCell>
        <mxCell id="IMV991JVtr9X0o2-LDnY-25" value="urls" style="rounded=0;whiteSpace=wrap;html=1;" vertex="1" parent="1">
          <mxGeometry x="414" y="270" width="66" height="30" as="geometry" />
        </mxCell>
        <mxCell id="IMV991JVtr9X0o2-LDnY-76" style="edgeStyle=orthogonalEdgeStyle;rounded=0;orthogonalLoop=1;jettySize=auto;html=1;" edge="1" parent="1" source="IMV991JVtr9X0o2-LDnY-34">
          <mxGeometry relative="1" as="geometry">
            <mxPoint x="850" y="280" as="targetPoint" />
            <Array as="points">
              <mxPoint x="780" y="405" />
              <mxPoint x="780" y="280" />
              <mxPoint x="850" y="280" />
            </Array>
          </mxGeometry>
        </mxCell>
        <mxCell id="IMV991JVtr9X0o2-LDnY-77" value="queries" style="edgeLabel;html=1;align=center;verticalAlign=middle;resizable=0;points=[];" vertex="1" connectable="0" parent="IMV991JVtr9X0o2-LDnY-76">
          <mxGeometry x="0.7449" y="3" relative="1" as="geometry">
            <mxPoint as="offset" />
          </mxGeometry>
        </mxCell>
        <mxCell id="IMV991JVtr9X0o2-LDnY-84" style="edgeStyle=orthogonalEdgeStyle;rounded=0;orthogonalLoop=1;jettySize=auto;html=1;entryX=0.5;entryY=1;entryDx=0;entryDy=0;" edge="1" parent="1" source="IMV991JVtr9X0o2-LDnY-34" target="IMV991JVtr9X0o2-LDnY-24">
          <mxGeometry relative="1" as="geometry">
            <Array as="points">
              <mxPoint x="650" y="440" />
              <mxPoint x="556" y="440" />
            </Array>
          </mxGeometry>
        </mxCell>
        <mxCell id="IMV991JVtr9X0o2-LDnY-85" value="return" style="edgeLabel;html=1;align=center;verticalAlign=middle;resizable=0;points=[];" vertex="1" connectable="0" parent="IMV991JVtr9X0o2-LDnY-84">
          <mxGeometry x="0.018" relative="1" as="geometry">
            <mxPoint as="offset" />
          </mxGeometry>
        </mxCell>
        <mxCell id="IMV991JVtr9X0o2-LDnY-34" value="models" style="rounded=0;whiteSpace=wrap;html=1;" vertex="1" parent="1">
          <mxGeometry x="630" y="390" width="66" height="30" as="geometry" />
        </mxCell>
        <mxCell id="IMV991JVtr9X0o2-LDnY-37" value="MySQL" style="rounded=0;whiteSpace=wrap;html=1;" vertex="1" parent="1">
          <mxGeometry x="870" y="230" width="120" height="60" as="geometry" />
        </mxCell>
        <mxCell id="IMV991JVtr9X0o2-LDnY-49" value="Weather Map" style="rounded=0;whiteSpace=wrap;html=1;" vertex="1" parent="1">
          <mxGeometry x="877" y="430" width="103" height="25" as="geometry" />
        </mxCell>
        <mxCell id="IMV991JVtr9X0o2-LDnY-50" value="Current weather and forecasts" style="rounded=0;whiteSpace=wrap;html=1;" vertex="1" parent="1">
          <mxGeometry x="878.5" y="462" width="103" height="38" as="geometry" />
        </mxCell>
        <mxCell id="IMV991JVtr9X0o2-LDnY-70" value="Templates" style="rounded=0;whiteSpace=wrap;html=1;" vertex="1" parent="1">
          <mxGeometry x="414" y="390" width="66" height="30" as="geometry" />
        </mxCell>
        <mxCell id="IMV991JVtr9X0o2-LDnY-72" style="edgeStyle=orthogonalEdgeStyle;rounded=0;orthogonalLoop=1;jettySize=auto;html=1;entryX=0;entryY=0.5;entryDx=0;entryDy=0;" edge="1" parent="1" source="IMV991JVtr9X0o2-LDnY-6" target="IMV991JVtr9X0o2-LDnY-25">
          <mxGeometry relative="1" as="geometry">
            <Array as="points">
              <mxPoint x="310" y="285" />
              <mxPoint x="310" y="285" />
            </Array>
          </mxGeometry>
        </mxCell>
        <mxCell id="IMV991JVtr9X0o2-LDnY-73" value="request" style="edgeLabel;html=1;align=center;verticalAlign=middle;resizable=0;points=[];" vertex="1" connectable="0" parent="IMV991JVtr9X0o2-LDnY-72">
          <mxGeometry x="-0.1966" y="2" relative="1" as="geometry">
            <mxPoint x="-8" y="2" as="offset" />
          </mxGeometry>
        </mxCell>
        <mxCell id="IMV991JVtr9X0o2-LDnY-74" style="edgeStyle=orthogonalEdgeStyle;rounded=0;orthogonalLoop=1;jettySize=auto;html=1;entryX=0;entryY=0.324;entryDx=0;entryDy=0;entryPerimeter=0;" edge="1" parent="1" source="IMV991JVtr9X0o2-LDnY-34" target="IMV991JVtr9X0o2-LDnY-48">
          <mxGeometry relative="1" as="geometry" />
        </mxCell>
        <mxCell id="IMV991JVtr9X0o2-LDnY-75" value="request" style="edgeLabel;html=1;align=center;verticalAlign=middle;resizable=0;points=[];" vertex="1" connectable="0" parent="IMV991JVtr9X0o2-LDnY-74">
          <mxGeometry x="0.166" y="-4" relative="1" as="geometry">
            <mxPoint x="25" y="-4" as="offset" />
          </mxGeometry>
        </mxCell>
        <mxCell id="IMV991JVtr9X0o2-LDnY-78" style="edgeStyle=orthogonalEdgeStyle;rounded=0;orthogonalLoop=1;jettySize=auto;html=1;entryX=0.5;entryY=0;entryDx=0;entryDy=0;" edge="1" parent="1" source="IMV991JVtr9X0o2-LDnY-1" target="IMV991JVtr9X0o2-LDnY-34">
          <mxGeometry relative="1" as="geometry">
            <Array as="points">
              <mxPoint x="663" y="260" />
            </Array>
          </mxGeometry>
        </mxCell>
        <mxCell id="IMV991JVtr9X0o2-LDnY-79" value="data" style="edgeLabel;html=1;align=center;verticalAlign=middle;resizable=0;points=[];" vertex="1" connectable="0" parent="IMV991JVtr9X0o2-LDnY-78">
          <mxGeometry x="0.5774" y="4" relative="1" as="geometry">
            <mxPoint x="133" y="-63" as="offset" />
          </mxGeometry>
        </mxCell>
        <mxCell id="IMV991JVtr9X0o2-LDnY-82" style="edgeStyle=orthogonalEdgeStyle;rounded=0;orthogonalLoop=1;jettySize=auto;html=1;entryX=0.5;entryY=1;entryDx=0;entryDy=0;" edge="1" parent="1" source="IMV991JVtr9X0o2-LDnY-48" target="IMV991JVtr9X0o2-LDnY-34">
          <mxGeometry relative="1" as="geometry">
            <Array as="points">
              <mxPoint x="663" y="440" />
            </Array>
          </mxGeometry>
        </mxCell>
        <mxCell id="IMV991JVtr9X0o2-LDnY-83" value="response" style="edgeLabel;html=1;align=center;verticalAlign=middle;resizable=0;points=[];" vertex="1" connectable="0" parent="IMV991JVtr9X0o2-LDnY-82">
          <mxGeometry x="0.557" y="2" relative="1" as="geometry">
            <mxPoint x="111" y="1" as="offset" />
          </mxGeometry>
        </mxCell>
        <mxCell id="IMV991JVtr9X0o2-LDnY-86" style="edgeStyle=orthogonalEdgeStyle;rounded=0;orthogonalLoop=1;jettySize=auto;html=1;entryX=1;entryY=0.681;entryDx=0;entryDy=0;entryPerimeter=0;" edge="1" parent="1" source="IMV991JVtr9X0o2-LDnY-70" target="IMV991JVtr9X0o2-LDnY-6">
          <mxGeometry relative="1" as="geometry" />
        </mxCell>
        <mxCell id="IMV991JVtr9X0o2-LDnY-87" value="response" style="edgeLabel;html=1;align=center;verticalAlign=middle;resizable=0;points=[];" vertex="1" connectable="0" parent="IMV991JVtr9X0o2-LDnY-86">
          <mxGeometry x="0.4452" y="1" relative="1" as="geometry">
            <mxPoint x="10" y="-1" as="offset" />
          </mxGeometry>
        </mxCell>
      </root>
    </mxGraphModel>
  </diagram>
</mxfile>
